<svg version="1.1" id="Layer_1" xmlns="http://www.w3.org/2000/svg" xmlns:xlink="http://www.w3.org/1999/xlink" x="0px" y="0px"
	 width="100%" viewBox="0 0 150 150" enable-background="new 0 0 150 150" xml:space="preserve">
<path fill="#434052" opacity="1.000000" stroke="none" 
	d="
M151.000000,121.000000 
	C151.000000,127.354393 151.000000,133.708786 150.644073,140.498383 
	C147.007706,146.449661 142.333252,149.424576 135.738235,149.166794 
	C135.183548,149.145111 134.580551,150.359741 134.000000,151.000000 
	C132.933334,151.000000 131.866653,151.000000 130.188721,150.675262 
	C127.572998,149.903610 125.569260,149.070618 123.563972,149.066849 
	C84.693649,148.993958 45.823139,149.018005 6.589708,148.996429 
	C4.484496,148.313812 2.742247,147.656906 0.999999,147.000000 
	C1.000000,140.312363 1.000000,133.624710 1.385048,126.456543 
	C3.503681,118.750153 8.018814,112.481766 8.246823,104.617813 
	C8.375834,100.168236 9.466846,94.856606 12.138530,91.570816 
	C16.597837,86.086525 18.112026,79.521164 21.274298,73.630394 
	C23.900557,68.738121 27.152655,64.181816 30.131567,59.470268 
	C21.564638,53.259518 21.253672,38.762234 32.066238,29.319304 
	C36.973610,25.033554 41.409348,19.938343 45.040195,14.526752 
	C49.861916,7.340223 55.877476,3.183694 64.571373,2.745539 
	C67.708839,2.587417 69.877274,3.640971 70.688782,6.528751 
	C73.147705,15.279006 79.757736,20.875719 85.792778,26.923796 
	C92.062584,33.207138 96.250313,40.153801 92.768936,49.402130 
	C91.052940,53.960712 93.640221,55.966808 97.063477,57.989418 
	C103.339096,61.697334 107.308495,67.758804 103.382294,74.192467 
	C101.911972,76.601799 103.422401,81.466438 104.809006,84.678352 
	C105.385674,86.014145 109.191238,85.956001 111.528519,86.531723 
	C105.918541,83.006187 105.379295,81.260475 105.978851,71.564529 
	C106.337898,65.758209 110.904053,66.340645 115.101952,65.380150 
	C113.558456,54.851818 118.356407,46.872044 124.715714,39.252583 
	C127.618965,35.774040 127.953079,30.930481 124.908691,27.268789 
	C123.385628,25.436895 120.185410,24.430885 117.650902,24.231464 
	C116.234764,24.120043 114.628525,26.424692 113.107948,27.640629 
	C114.310089,28.750635 115.403183,30.636183 116.735069,30.823458 
	C120.545280,31.359201 120.688087,33.641285 120.239548,36.489140 
	C119.100334,43.722157 112.364372,46.446926 106.609619,42.004166 
	C105.299362,40.992626 104.091866,39.847343 102.775322,38.844692 
	C97.658936,34.948162 95.731056,29.047148 97.948929,22.974010 
	C100.814980,15.126012 106.700722,9.714775 113.732224,5.881176 
	C121.078156,1.876150 126.632362,4.499790 130.028152,12.034309 
	C131.628845,15.585905 133.564575,19.286509 136.281586,21.977453 
	C143.755844,29.379990 144.047272,37.018692 136.747910,44.832619 
	C134.286301,47.467781 132.170105,50.491913 130.270157,53.569260 
	C127.703148,57.727036 128.870773,63.260502 131.973740,67.332016 
	C133.539429,69.386436 134.526901,72.209488 134.854782,74.801506 
	C135.331650,78.571327 134.698547,82.473534 135.068863,86.267540 
	C135.339935,89.044792 135.733902,92.306175 137.337677,94.368217 
	C143.147293,101.837860 147.280640,109.940552 149.127396,119.234413 
	C149.263626,119.919907 150.353485,120.415901 151.000000,121.000000 
M107.021339,142.293716 
	C107.021339,142.293716 107.338417,142.224380 107.338417,142.224380 
	C107.338417,142.224380 107.118195,141.901428 107.029648,141.103928 
	C102.448593,126.160965 107.293373,111.689636 109.821556,95.964401 
	C102.556465,103.451614 102.902275,112.522606 101.115585,120.775993 
	C100.549370,120.698044 99.983154,120.620094 99.416939,120.542145 
	C99.273926,118.022240 99.130905,115.502335 99.175728,112.222626 
	C101.856880,105.118004 104.538033,98.013374 107.289337,90.722870 
	C105.137184,92.111076 102.580887,93.759972 99.454865,95.776352 
	C99.454865,94.437836 99.198097,93.546806 99.494110,93.287956 
	C102.896286,90.313034 101.614693,87.232231 99.961250,84.005959 
	C99.367004,82.846420 99.209480,81.463058 98.784119,79.502563 
	C98.007217,78.832970 96.926033,77.428528 96.499519,77.605125 
	C90.990837,79.886131 85.507011,82.258804 80.204834,84.975128 
	C79.338745,85.418831 79.378159,87.630028 78.672867,89.781670 
	C77.010078,94.415550 79.465446,99.904770 76.723106,104.314430 
	C76.160072,104.248337 75.597046,104.182243 75.034012,104.116158 
	C75.034012,100.049263 75.034012,95.982368 75.121094,91.258316 
	C75.121094,90.044228 75.121094,88.830147 75.121094,87.488724 
	C64.797035,90.719948 64.631775,91.226646 68.221832,100.718941 
	C68.840607,102.355019 68.254097,104.474075 68.113655,106.361794 
	C67.996490,107.936623 67.836037,109.527115 67.478477,111.060226 
	C67.064865,112.833687 66.894394,115.392654 65.731354,116.056458 
	C64.580612,116.713226 61.885796,115.957947 60.630344,114.909508 
	C55.719635,110.808556 51.110538,106.346420 46.080193,101.735107 
	C43.201996,103.389244 44.230618,106.509644 44.194279,110.203026 
	C43.220100,113.028694 45.556507,116.840591 40.881355,120.163879 
	C40.881355,116.893318 40.881355,114.991737 40.958626,112.253380 
	C40.958626,110.199142 40.958626,108.144905 40.958626,105.864937 
	C33.807659,108.456383 32.489510,110.841301 33.259422,119.287155 
	C32.413776,123.649406 31.847822,128.089355 30.662199,132.357147 
	C28.437405,140.365646 33.234249,146.714600 40.710823,145.183411 
	C40.933846,142.584763 41.158573,139.966248 41.447178,136.603439 
	C49.610229,146.226440 49.610229,146.226440 54.549404,145.314056 
	C55.039761,143.783829 55.530117,142.253601 56.020473,140.723373 
	C56.405617,140.543228 56.790764,140.363098 57.175907,140.182953 
	C57.864983,147.258179 62.729149,145.801483 66.827766,145.886963 
	C68.324837,145.918198 69.838799,145.749847 71.317932,145.915146 
	C75.674088,146.401993 77.383232,143.820251 77.877937,140.147507 
	C78.208771,137.691376 77.956726,135.162048 78.119194,132.675522 
	C78.192215,131.557968 78.640884,130.464966 78.919106,129.360825 
	C79.417709,129.412674 79.916321,129.464508 80.414932,129.516342 
	C80.414932,134.759888 80.414932,140.003433 80.414932,145.239838 
	C88.424942,146.959824 91.099274,145.412216 91.667160,137.491669 
	C91.982040,133.100021 90.851906,128.609573 90.423691,124.158783 
	C89.601158,115.609612 88.814644,107.056992 88.013191,98.505798 
	C88.339775,98.329613 88.666359,98.153419 88.992943,97.977234 
	C90.030907,99.284981 91.068871,100.592720 92.082069,102.848183 
	C92.792908,110.573349 92.709938,118.482857 94.448532,125.969345 
	C96.035286,132.801987 99.160431,139.517731 107.021339,142.293716 
M70.916229,85.155388 
	C79.112808,81.530159 87.334602,77.960587 95.498146,74.262428 
	C102.248840,71.204292 102.603088,66.361145 96.480217,62.074459 
	C94.453957,60.655857 91.755516,59.696911 90.493912,57.783195 
	C87.112137,52.653381 82.359879,53.077404 78.249062,53.077816 
	C77.429733,58.987564 77.223213,64.433159 75.812973,69.546791 
	C74.376282,74.756248 71.755318,79.639107 69.393951,84.936287 
	C69.655815,85.022408 69.917679,85.108528 70.916229,85.155388 
M88.768051,46.962234 
	C91.495476,40.092827 88.135925,35.045227 83.638649,30.491175 
	C77.101669,23.871660 70.008972,17.742767 66.948959,8.437812 
	C66.636200,7.486776 63.959660,6.270884 63.186691,6.684702 
	C58.607983,9.135961 53.597206,11.356095 49.994789,14.927856 
	C43.675079,21.193785 38.355587,28.457315 32.450748,35.156319 
	C27.449389,40.830334 26.591181,46.215202 30.394438,53.557327 
	C35.443203,57.234905 37.818253,56.758453 43.519012,50.663933 
	C42.083984,50.043541 40.779247,49.479477 39.252018,48.112225 
	C39.157524,44.641769 37.758057,40.422298 39.232967,37.852631 
	C42.578014,32.024723 47.142639,26.839750 51.580685,21.713041 
	C55.647373,17.015314 62.426006,15.758606 66.193161,19.868221 
	C73.248512,27.564936 81.141228,35.169395 80.603889,47.458916 
	C81.887199,48.398949 83.151222,50.041542 84.459351,50.077457 
	C85.717049,50.111988 87.020409,48.483498 88.768051,46.962234 
M53.360180,79.633713 
	C52.948563,81.569992 52.862991,83.651855 52.073719,85.419510 
	C45.791973,99.488174 51.928783,105.807816 65.430038,113.428482 
	C61.872192,107.421394 58.363678,102.621132 56.056728,97.299942 
	C53.535900,91.485397 55.618050,85.570763 58.099258,79.276695 
	C62.913723,71.724281 63.892635,63.602608 61.268219,54.723675 
	C62.902454,55.613586 63.715435,56.522987 64.132942,57.587502 
	C66.575188,63.814556 65.915192,69.820602 63.202503,75.899429 
	C61.268124,80.234161 60.034290,84.881500 58.222889,90.040543 
	C58.122192,98.423080 61.083153,103.609398 66.597237,103.403793 
	C60.868542,97.162613 63.169815,90.471855 65.017853,83.185616 
	C67.062996,79.566841 69.139854,75.965546 71.145706,72.325127 
	C74.034370,67.082497 75.596710,61.617161 73.983437,55.580009 
	C72.311401,49.322983 66.847946,44.343311 61.107075,43.982147 
	C54.079674,43.540051 49.424603,46.716717 46.528637,53.620338 
	C43.280891,61.362560 42.866520,69.071175 46.222637,77.767761 
	C46.222637,80.332825 46.222637,82.897896 46.222637,85.808861 
	C50.974899,84.592674 49.914207,81.022369 50.063889,77.064766 
	C50.012661,73.101830 49.698925,69.119698 49.986988,65.181580 
	C50.253674,61.535709 51.707867,60.501789 55.384396,60.630188 
	C51.297886,66.425949 52.808674,72.638741 53.360180,79.633713 
M44.933563,97.900330 
	C47.841125,95.264122 47.332352,92.347206 45.901768,89.147133 
	C44.718414,86.500099 43.931828,83.675690 43.034748,80.102486 
	C42.154545,72.626129 41.274342,65.149765 40.375683,57.516651 
	C31.368994,63.296139 25.449738,71.987373 22.047318,83.081306 
	C25.303331,82.310036 28.004368,81.670227 30.705404,81.030418 
	C30.813789,81.486847 30.922173,81.943275 31.030558,82.399704 
	C26.496878,85.282501 21.616673,87.749527 17.523520,91.160896 
	C13.118083,94.832527 11.593871,101.302864 12.849402,106.368927 
	C17.456335,103.765755 20.460754,98.298439 26.748363,97.897514 
	C26.645796,99.000183 26.739670,99.447258 26.564651,99.616859 
	C25.859659,100.300018 25.139582,101.011452 24.304138,101.509644 
	C9.587100,110.285561 5.088187,124.149498 5.199125,140.194153 
	C5.212058,142.064590 6.470751,143.926407 7.151906,145.792221 
	C7.672472,145.713394 8.193039,145.634567 8.713605,145.555740 
	C11.741501,128.861313 21.018774,116.224541 33.930893,105.976906 
	C37.309643,103.295380 40.810196,100.767311 44.933563,97.900330 
M135.475861,39.754982 
	C139.069092,32.683479 138.606918,30.896036 133.827286,25.037897 
	C130.704849,21.210922 128.097122,16.887875 125.771622,12.514370 
	C124.291756,9.731225 122.605331,8.667080 119.512245,8.867663 
	C112.681953,9.310600 108.990082,14.189193 105.210182,18.788647 
	C98.442635,27.023520 100.382484,34.895103 110.224106,38.978313 
	C111.551842,39.529182 113.622162,38.290195 115.348633,37.880001 
	C114.571045,36.585270 114.099556,34.784466 112.956886,34.093342 
	C109.873337,32.228310 107.727905,29.555719 109.140854,26.348845 
	C110.245865,23.840887 112.908775,21.106989 115.450729,20.321018 
	C122.215668,18.229301 128.046738,22.001974 130.123291,28.795254 
	C131.978271,34.863659 129.983978,40.030949 126.069481,44.493332 
	C121.306252,49.923233 118.647743,55.940655 119.939995,63.211239 
	C120.167404,64.490700 121.541260,65.566406 122.385651,66.736206 
	C123.238663,65.586464 124.891739,64.383476 124.819321,63.295330 
	C124.186508,53.786507 128.622559,46.651924 135.475861,39.754982 
M70.326515,34.593575 
	C70.270683,33.265034 70.396484,31.898413 70.127342,30.614592 
	C69.006386,25.267595 63.906601,20.776329 59.445297,21.071871 
	C55.520626,21.331863 51.142231,25.448185 50.910892,29.546654 
	C50.670296,33.809258 50.857258,38.095989 50.857258,41.140781 
	C57.686962,41.520023 63.749718,41.856678 69.996620,42.203556 
	C70.075531,40.480675 70.189522,37.991772 70.326515,34.593575 
M136.100693,99.433350 
	C133.883102,96.541840 131.665527,93.650322 129.447937,90.758812 
	C128.829590,91.041786 128.211243,91.324753 127.592903,91.607727 
	C137.263214,108.609230 144.800415,125.892273 135.440308,145.407822 
	C143.499771,144.280045 146.903488,140.542679 146.836731,132.312286 
	C146.741180,120.532257 143.347946,109.701378 136.100693,99.433350 
M109.573746,119.286034 
	C110.070885,122.724670 110.237808,126.255905 111.167999,129.573105 
	C111.934090,132.305069 113.600815,134.789780 117.293526,133.658585 
	C117.293526,122.982307 117.386246,112.402496 117.194366,101.827866 
	C117.165314,100.226746 115.812340,98.649643 114.709435,96.284447 
	C110.414917,103.702026 109.845352,111.029419 109.573746,119.286034 
M124.884987,103.529221 
	C124.857582,101.036377 125.117393,98.494545 124.703476,96.067619 
	C124.419739,94.403954 123.198746,92.900139 122.396736,91.324867 
	C121.656166,92.888794 120.268059,94.455803 120.275490,96.016167 
	C120.347496,111.132164 120.598610,126.248428 120.981255,141.359985 
	C121.018013,142.811661 122.288811,144.232056 122.986740,145.666977 
	C123.678116,144.228394 124.956261,142.794830 124.968651,141.350418 
	C125.073982,129.072998 124.949028,116.793587 124.884987,103.529221 
M131.146484,79.470078 
	C131.144058,69.102333 129.015717,67.750153 116.857353,70.583298 
	C116.926117,77.092964 123.685333,71.385216 125.513672,75.994545 
	C122.658119,76.451332 119.977562,76.880135 117.296997,77.308929 
	C117.031746,77.688148 116.766502,78.067368 116.501251,78.446587 
	C117.659042,79.242653 118.717758,80.362968 119.999161,80.754494 
	C121.682777,81.268913 123.541725,81.209465 125.325272,81.396805 
	C125.342468,81.961105 125.359657,82.525406 125.376854,83.089714 
	C122.623726,83.500305 119.870598,83.910904 116.372467,84.432610 
	C117.249123,85.775337 117.833908,87.572891 118.561188,87.632523 
	C122.162827,87.927811 125.981041,88.387283 129.331406,87.425323 
	C130.509689,87.087021 130.573685,82.867851 131.146484,79.470078 
M113.309547,70.436050 
	C110.118240,69.162773 109.359612,71.418518 109.509117,73.597328 
	C109.672295,75.975334 110.686951,78.294907 111.330437,80.639946 
	C112.150215,79.941872 113.587273,79.313110 113.674896,78.532814 
	C113.945915,76.119530 113.702873,73.648521 113.309547,70.436050 
z"/>
<path fill="#000000" opacity="1.000000" stroke="none" 
	d="
M151.000000,120.531342 
	C150.353485,120.415901 149.263626,119.919907 149.127396,119.234413 
	C147.280640,109.940552 143.147293,101.837860 137.337677,94.368217 
	C135.733902,92.306175 135.339935,89.044792 135.068863,86.267540 
	C134.698547,82.473534 135.331650,78.571327 134.854782,74.801506 
	C134.526901,72.209488 133.539429,69.386436 131.973740,67.332016 
	C128.870773,63.260502 127.703148,57.727036 130.270157,53.569260 
	C132.170105,50.491913 134.286301,47.467781 136.747910,44.832619 
	C144.047272,37.018692 143.755844,29.379990 136.281586,21.977453 
	C133.564575,19.286509 131.628845,15.585905 130.028152,12.034309 
	C126.632362,4.499790 121.078156,1.876150 113.732224,5.881176 
	C106.700722,9.714775 100.814980,15.126012 97.948929,22.974010 
	C95.731056,29.047148 97.658936,34.948162 102.775322,38.844692 
	C104.091866,39.847343 105.299362,40.992626 106.609619,42.004166 
	C112.364372,46.446926 119.100334,43.722157 120.239548,36.489140 
	C120.688087,33.641285 120.545280,31.359201 116.735069,30.823458 
	C115.403183,30.636183 114.310089,28.750635 113.107948,27.640629 
	C114.628525,26.424692 116.234764,24.120043 117.650902,24.231464 
	C120.185410,24.430885 123.385628,25.436895 124.908691,27.268789 
	C127.953079,30.930481 127.618965,35.774040 124.715714,39.252583 
	C118.356407,46.872044 113.558456,54.851818 115.101952,65.380150 
	C110.904053,66.340645 106.337898,65.758209 105.978851,71.564529 
	C105.379295,81.260475 105.918541,83.006187 111.528519,86.531723 
	C109.191238,85.956001 105.385674,86.014145 104.809006,84.678352 
	C103.422401,81.466438 101.911972,76.601799 103.382294,74.192467 
	C107.308495,67.758804 103.339096,61.697334 97.063477,57.989418 
	C93.640221,55.966808 91.052940,53.960712 92.768936,49.402130 
	C96.250313,40.153801 92.062584,33.207138 85.792778,26.923796 
	C79.757736,20.875719 73.147705,15.279006 70.688782,6.528751 
	C69.877274,3.640971 67.708839,2.587417 64.571373,2.745539 
	C55.877476,3.183694 49.861916,7.340223 45.040195,14.526752 
	C41.409348,19.938343 36.973610,25.033554 32.066238,29.319304 
	C21.253672,38.762234 21.564638,53.259518 30.131567,59.470268 
	C27.152655,64.181816 23.900557,68.738121 21.274298,73.630394 
	C18.112026,79.521164 16.597837,86.086525 12.138530,91.570816 
	C9.466846,94.856606 8.375834,100.168236 8.246823,104.617813 
	C8.018814,112.481766 3.503681,118.750153 1.385048,125.988007 
	C1.000000,84.379517 1.000000,42.759033 1.000000,1.069275 
	C50.898315,1.069275 100.796753,1.069275 151.000000,1.069275 
	C151.000000,40.687042 151.000000,80.374863 151.000000,120.531342 
z"/>
<path fill="#555555" opacity="1.000000" stroke="none" 
	d="
M6.952672,149.022141 
	C45.823139,149.018005 84.693649,148.993958 123.563972,149.066849 
	C125.569260,149.070618 127.572998,149.903610 129.788727,150.675262 
	C89.312439,151.000000 48.624878,151.000000 7.622517,150.686127 
	C7.189370,149.922211 7.071021,149.472183 6.952672,149.022141 
z"/>
<path fill="#000000" opacity="1.000000" stroke="none" 
	d="
M134.470459,151.000000 
	C134.580551,150.359741 135.183548,149.145111 135.738235,149.166794 
	C142.333252,149.424576 147.007706,146.449661 150.644073,140.966797 
	C151.000000,144.277878 151.000000,147.555740 151.000000,151.000000 
	C145.647736,151.000000 140.294312,151.000000 134.470459,151.000000 
z"/>
<path fill="#000000" opacity="1.000000" stroke="none" 
	d="
M6.589708,148.996429 
	C7.071021,149.472183 7.189370,149.922211 7.153859,150.686127 
	C5.115973,149.768051 0.518038,153.963928 0.999999,147.500000 
	C2.742247,147.656906 4.484496,148.313812 6.589708,148.996429 
z"/>
<path fill="#D58582" opacity="1.000000" stroke="none" 
	d="
M92.106834,101.900467 
	C91.068871,100.592720 90.030907,99.284981 88.992943,97.977234 
	C88.666359,98.153419 88.339775,98.329613 88.013191,98.505798 
	C88.814644,107.056992 89.601158,115.609612 90.423691,124.158783 
	C90.851906,128.609573 91.982040,133.100021 91.667160,137.491669 
	C91.099274,145.412216 88.424942,146.959824 80.414932,145.239838 
	C80.414932,140.003433 80.414932,134.759888 80.414932,129.516342 
	C79.916321,129.464508 79.417709,129.412674 78.919106,129.360825 
	C78.640884,130.464966 78.192215,131.557968 78.119194,132.675522 
	C77.956726,135.162048 78.208771,137.691376 77.877937,140.147507 
	C77.383232,143.820251 75.674088,146.401993 71.317932,145.915146 
	C69.838799,145.749847 68.324837,145.918198 66.827766,145.886963 
	C62.729149,145.801483 57.864983,147.258179 57.175907,140.182953 
	C56.790764,140.363098 56.405617,140.543228 56.020473,140.723373 
	C55.530117,142.253601 55.039761,143.783829 54.545708,145.314667 
	C49.610229,146.226440 49.610229,146.226440 41.447178,136.603439 
	C41.158573,139.966248 40.933846,142.584763 40.710823,145.183411 
	C33.234249,146.714600 28.437405,140.365646 30.662199,132.357147 
	C31.847822,128.089355 32.413776,123.649406 33.641159,118.700485 
	C36.309048,116.439262 38.595203,114.764709 40.881355,113.090157 
	C40.881355,114.991737 40.881355,116.893318 40.881355,120.163879 
	C45.556507,116.840591 43.220100,113.028694 44.584358,109.655304 
	C46.172638,109.061905 47.729107,108.507477 48.508595,109.056389 
	C52.409454,111.803398 56.252663,114.674118 59.827652,117.828323 
	C62.513916,120.198402 65.029747,120.598877 67.808327,118.428658 
	C69.729263,116.928284 72.147034,102.942375 71.014954,100.665092 
	C67.991653,94.583450 68.204216,94.120682 75.034012,91.915474 
	C75.034012,95.982368 75.034012,100.049263 75.034012,104.116158 
	C75.597046,104.182243 76.160072,104.248337 76.723106,104.314430 
	C79.465446,99.904770 77.010078,94.415550 79.187088,89.321121 
	C86.085098,85.967659 92.468872,83.074753 98.852646,80.181839 
	C99.209480,81.463058 99.367004,82.846420 99.961250,84.005959 
	C101.614693,87.232231 102.896286,90.313034 99.494110,93.287956 
	C99.198097,93.546806 99.454865,94.437836 99.454865,95.776352 
	C102.580887,93.759972 105.137184,92.111076 107.289337,90.722870 
	C104.538033,98.013374 101.856880,105.118004 98.730904,112.535248 
	C97.408562,111.425964 96.479202,110.032997 95.665642,108.575394 
	C94.436966,106.374092 93.289062,104.127701 92.106834,101.900467 
z"/>
<path fill="#D38581" opacity="1.000000" stroke="none" 
	d="
M44.254807,98.168770 
	C40.810196,100.767311 37.309643,103.295380 33.930893,105.976906 
	C21.018774,116.224541 11.741501,128.861313 8.713605,145.555740 
	C8.193039,145.634567 7.672472,145.713394 7.151906,145.792221 
	C6.470751,143.926407 5.212058,142.064590 5.199125,140.194153 
	C5.088187,124.149498 9.587100,110.285561 24.304138,101.509644 
	C25.139582,101.011452 25.859659,100.300018 26.564651,99.616859 
	C26.739670,99.447258 26.645796,99.000183 26.748363,97.897514 
	C20.460754,98.298439 17.456335,103.765755 12.849402,106.368927 
	C11.593871,101.302864 13.118083,94.832527 17.523520,91.160896 
	C21.616673,87.749527 26.496878,85.282501 31.030558,82.399704 
	C30.922173,81.943275 30.813789,81.486847 30.705404,81.030418 
	C28.004368,81.670227 25.303331,82.310036 22.047318,83.081306 
	C25.449738,71.987373 31.368994,63.296139 40.375683,57.516651 
	C41.274342,65.149765 42.154545,72.626129 42.751205,80.759399 
	C42.115788,84.165421 41.246502,86.973587 41.551750,89.647682 
	C41.883400,92.553040 43.307213,95.333725 44.254807,98.168770 
z"/>
<path fill="#F5F3F8" opacity="1.000000" stroke="none" 
	d="
M58.487839,89.389343 
	C60.034290,84.881500 61.268124,80.234161 63.202503,75.899429 
	C65.915192,69.820602 66.575188,63.814556 64.132942,57.587502 
	C63.715435,56.522987 62.902454,55.613586 61.268219,54.723675 
	C63.892635,63.602608 62.913723,71.724281 57.636848,79.621956 
	C55.969734,79.575676 54.765034,79.184135 53.560333,78.792587 
	C52.808674,72.638741 51.297886,66.425949 55.384396,60.630188 
	C51.707867,60.501789 50.253674,61.535709 49.986988,65.181580 
	C49.698925,69.119698 50.012661,73.101830 49.692337,77.540756 
	C48.297268,77.631012 47.273750,77.245293 46.250237,76.859566 
	C42.866520,69.071175 43.280891,61.362560 46.528637,53.620338 
	C49.424603,46.716717 54.079674,43.540051 61.107075,43.982147 
	C66.847946,44.343311 72.311401,49.322983 73.983437,55.580009 
	C75.596710,61.617161 74.034370,67.082497 71.145706,72.325127 
	C69.139854,75.965546 67.062996,79.566841 64.542786,83.593796 
	C62.207767,85.797768 60.347805,87.593559 58.487839,89.389343 
z"/>
<path fill="#D08380" opacity="1.000000" stroke="none" 
	d="
M30.031458,52.945026 
	C26.591181,46.215202 27.449389,40.830334 32.450748,35.156319 
	C38.355587,28.457315 43.675079,21.193785 49.994789,14.927856 
	C53.597206,11.356095 58.607983,9.135961 63.186691,6.684702 
	C63.959660,6.270884 66.636200,7.486776 66.948959,8.437812 
	C70.008972,17.742767 77.101669,23.871660 83.638649,30.491175 
	C88.135925,35.045227 91.495476,40.092827 88.084908,47.157227 
	C85.276039,47.215332 83.150307,47.078449 81.024582,46.941566 
	C81.141228,35.169395 73.248512,27.564936 66.193161,19.868221 
	C62.426006,15.758606 55.647373,17.015314 51.580685,21.713041 
	C47.142639,26.839750 42.578014,32.024723 39.232967,37.852631 
	C37.758057,40.422298 39.157524,44.641769 39.000225,48.639679 
	C35.842773,50.426430 32.937115,51.685726 30.031458,52.945026 
z"/>
<path fill="#AC5051" opacity="1.000000" stroke="none" 
	d="
M135.236725,40.037437 
	C128.622559,46.651924 124.186508,53.786507 124.819321,63.295330 
	C124.891739,64.383476 123.238663,65.586464 122.385651,66.736206 
	C121.541260,65.566406 120.167404,64.490700 119.939995,63.211239 
	C118.647743,55.940655 121.306252,49.923233 126.069481,44.493332 
	C129.983978,40.030949 131.978271,34.863659 130.123291,28.795254 
	C128.046738,22.001974 122.215668,18.229301 115.450729,20.321018 
	C112.908775,21.106989 110.245865,23.840887 109.140854,26.348845 
	C107.727905,29.555719 109.873337,32.228310 112.956886,34.093342 
	C114.099556,34.784466 114.571045,36.585270 115.348633,37.880001 
	C113.622162,38.290195 111.551842,39.529182 110.224106,38.978313 
	C100.382484,34.895103 98.442635,27.023520 105.210182,18.788647 
	C108.990082,14.189193 112.681953,9.310600 119.512245,8.867663 
	C122.605331,8.667080 124.291756,9.731225 125.771622,12.514370 
	C128.097122,16.887875 130.704849,21.210922 133.827286,25.037897 
	C138.606918,30.896036 139.069092,32.683479 135.236725,40.037437 
z"/>
<path fill="#D48581" opacity="1.000000" stroke="none" 
	d="
M69.652885,84.664963 
	C71.755318,79.639107 74.376282,74.756248 75.812973,69.546791 
	C77.223213,64.433159 77.429733,58.987564 78.249062,53.077816 
	C82.359879,53.077404 87.112137,52.653381 90.493912,57.783195 
	C91.755516,59.696911 94.453957,60.655857 96.480217,62.074459 
	C102.603088,66.361145 102.248840,71.204292 95.498146,74.262428 
	C87.334602,77.960587 79.112808,81.530159 70.416718,85.042099 
	C69.917213,84.928818 69.652885,84.664963 69.652885,84.664963 
z"/>
<path fill="#834E4F" opacity="1.000000" stroke="none" 
	d="
M92.094452,102.374329 
	C93.289062,104.127701 94.436966,106.374092 95.665642,108.575394 
	C96.479202,110.032997 97.408562,111.425964 98.636978,112.915146 
	C99.130905,115.502335 99.273926,118.022240 99.416939,120.542145 
	C99.983154,120.620094 100.549370,120.698044 101.115585,120.775993 
	C102.902275,112.522606 102.556465,103.451614 109.821556,95.964401 
	C107.293373,111.689636 102.448593,126.160965 107.010803,141.564636 
	C106.991951,142.025345 106.871452,142.154831 106.871452,142.154831 
	C99.160431,139.517731 96.035286,132.801987 94.448532,125.969345 
	C92.709938,118.482857 92.792908,110.573349 92.094452,102.374329 
z"/>
<path fill="#F7C5BC" opacity="1.000000" stroke="none" 
	d="
M70.315018,35.048218 
	C70.189522,37.991772 70.075531,40.480675 69.996620,42.203556 
	C63.749718,41.856678 57.686962,41.520023 50.857258,41.140781 
	C50.857258,38.095989 50.670296,33.809258 50.910892,29.546654 
	C51.142231,25.448185 55.520626,21.331863 59.445297,21.071871 
	C63.906601,20.776329 69.006386,25.267595 70.127342,30.614592 
	C70.396484,31.898413 70.270683,33.265034 70.315018,35.048218 
z"/>
<path fill="#CF8380" opacity="1.000000" stroke="none" 
	d="
M136.315063,99.724350 
	C143.347946,109.701378 146.741180,120.532257 146.836731,132.312286 
	C146.903488,140.542679 143.499771,144.280045 135.440308,145.407822 
	C144.800415,125.892273 137.263214,108.609230 127.592903,91.607727 
	C128.211243,91.324753 128.829590,91.041786 129.447937,90.758812 
	C131.665527,93.650322 133.883102,96.541840 136.315063,99.724350 
z"/>
<path fill="#F4CEC6" opacity="1.000000" stroke="none" 
	d="
M109.563599,118.854889 
	C109.845352,111.029419 110.414917,103.702026 114.709435,96.284447 
	C115.812340,98.649643 117.165314,100.226746 117.194366,101.827866 
	C117.386246,112.402496 117.293526,122.982307 117.293526,133.658585 
	C113.600815,134.789780 111.934090,132.305069 111.167999,129.573105 
	C110.237808,126.255905 110.070885,122.724670 109.563599,118.854889 
z"/>
<path fill="#AA5051" opacity="1.000000" stroke="none" 
	d="
M124.889038,104.021996 
	C124.949028,116.793587 125.073982,129.072998 124.968651,141.350418 
	C124.956261,142.794830 123.678116,144.228394 122.986740,145.666977 
	C122.288811,144.232056 121.018013,142.811661 120.981255,141.359985 
	C120.598610,126.248428 120.347496,111.132164 120.275490,96.016167 
	C120.268059,94.455803 121.656166,92.888794 122.396729,91.324867 
	C123.198746,92.900139 124.419739,94.403954 124.703476,96.067619 
	C125.117393,98.494545 124.857582,101.036377 124.889038,104.021996 
z"/>
<path fill="#F7D1C8" opacity="1.000000" stroke="none" 
	d="
M131.146484,79.945389 
	C130.573685,82.867851 130.509689,87.087021 129.331406,87.425323 
	C125.981041,88.387283 122.162827,87.927811 118.561188,87.632523 
	C117.833908,87.572891 117.249123,85.775337 116.372467,84.432610 
	C119.870598,83.910904 122.623726,83.500305 125.376854,83.089714 
	C125.359657,82.525406 125.342468,81.961105 125.325272,81.396805 
	C123.541725,81.209465 121.682777,81.268913 119.999161,80.754494 
	C118.717758,80.362968 117.659042,79.242653 116.501251,78.446587 
	C116.766502,78.067368 117.031746,77.688148 117.296997,77.308929 
	C119.977562,76.880135 122.658119,76.451332 125.513672,75.994545 
	C123.685333,71.385216 116.926117,77.092964 116.857353,70.583298 
	C129.015717,67.750153 131.144058,69.102333 131.146484,79.945389 
z"/>
<path fill="#875152" opacity="1.000000" stroke="none" 
	d="
M75.077553,91.586899 
	C68.204216,94.120682 67.991653,94.583450 71.014954,100.665092 
	C72.147034,102.942375 69.729263,116.928284 67.808327,118.428658 
	C65.029747,120.598877 62.513916,120.198402 59.827652,117.828323 
	C56.252663,114.674118 52.409454,111.803398 48.508595,109.056389 
	C47.729107,108.507477 46.172638,109.061905 44.666946,109.231476 
	C44.230618,106.509644 43.201996,103.389244 46.080193,101.735107 
	C51.110538,106.346420 55.719635,110.808556 60.630344,114.909508 
	C61.885796,115.957947 64.580612,116.713226 65.731354,116.056458 
	C66.894394,115.392654 67.064865,112.833687 67.478477,111.060226 
	C67.836037,109.527115 67.996490,107.936623 68.113655,106.361794 
	C68.254097,104.474075 68.840607,102.355019 68.221832,100.718941 
	C64.631775,91.226646 64.797035,90.719948 75.121094,87.488724 
	C75.121094,88.830147 75.121094,90.044228 75.077553,91.586899 
z"/>
<path fill="#B1ACCA" opacity="1.000000" stroke="none" 
	d="
M53.460258,79.213150 
	C54.765034,79.184135 55.969734,79.575676 57.497490,79.949783 
	C55.618050,85.570763 53.535900,91.485397 56.056728,97.299942 
	C58.363678,102.621132 61.872192,107.421394 65.430038,113.428482 
	C51.928783,105.807816 45.791973,99.488174 52.073719,85.419510 
	C52.862991,83.651855 52.948563,81.569992 53.460258,79.213150 
z"/>
<path fill="#B0ACC9" opacity="1.000000" stroke="none" 
	d="
M58.355366,89.714943 
	C60.347805,87.593559 62.207767,85.797768 64.400513,83.912872 
	C63.169815,90.471855 60.868542,97.162613 66.597237,103.403793 
	C61.083153,103.609398 58.122192,98.423080 58.355366,89.714943 
z"/>
<path fill="#875151" opacity="1.000000" stroke="none" 
	d="
M98.818390,79.842201 
	C92.468872,83.074753 86.085098,85.967659 79.350189,88.942429 
	C79.378159,87.630028 79.338745,85.418831 80.204834,84.975128 
	C85.507011,82.258804 90.990837,79.886131 96.499519,77.605125 
	C96.926033,77.428528 98.007217,78.832970 98.818390,79.842201 
z"/>
<path fill="#854F50" opacity="1.000000" stroke="none" 
	d="
M40.919991,112.671768 
	C38.595203,114.764709 36.309048,116.439262 33.746849,118.290909 
	C32.489510,110.841301 33.807659,108.456383 40.958626,105.864937 
	C40.958626,108.144905 40.958626,110.199142 40.919991,112.671768 
z"/>
<path fill="#844F51" opacity="1.000000" stroke="none" 
	d="
M30.212948,53.251175 
	C32.937115,51.685726 35.842773,50.426430 39.111473,49.041275 
	C40.779247,49.479477 42.083984,50.043541 43.519012,50.663933 
	C37.818253,56.758453 35.443203,57.234905 30.212948,53.251175 
z"/>
<path fill="#855052" opacity="1.000000" stroke="none" 
	d="
M44.594185,98.034546 
	C43.307213,95.333725 41.883400,92.553040 41.551750,89.647682 
	C41.246502,86.973587 42.115788,84.165421 42.718552,81.173096 
	C43.931828,83.675690 44.718414,86.500099 45.901768,89.147133 
	C47.332352,92.347206 47.841125,95.264122 44.594185,98.034546 
z"/>
<path fill="#D4807E" opacity="1.000000" stroke="none" 
	d="
M113.484482,70.817986 
	C113.702873,73.648521 113.945915,76.119530 113.674896,78.532814 
	C113.587273,79.313110 112.150215,79.941872 111.330444,80.639954 
	C110.686951,78.294907 109.672295,75.975334 109.509117,73.597328 
	C109.359612,71.418518 110.118240,69.162773 113.484482,70.817986 
z"/>
<path fill="#B0ACC9" opacity="1.000000" stroke="none" 
	d="
M46.236435,77.313660 
	C47.273750,77.245293 48.297268,77.631012 49.651215,78.004929 
	C49.914207,81.022369 50.974899,84.592674 46.222637,85.808861 
	C46.222637,82.897896 46.222637,80.332825 46.236435,77.313660 
z"/>
<path fill="#845052" opacity="1.000000" stroke="none" 
	d="
M80.814240,47.200241 
	C83.150307,47.078449 85.276039,47.215332 87.852737,47.468979 
	C87.020409,48.483498 85.717049,50.111988 84.459351,50.077457 
	C83.151222,50.041542 81.887199,48.398949 80.814240,47.200241 
z"/>
<path fill="#D48581" opacity="1.000000" stroke="none" 
	d="
M70.048378,85.061737 
	C69.917679,85.108528 69.655815,85.022408 69.523422,84.800629 
	C69.652885,84.664963 69.917213,84.928818 70.048378,85.061737 
z"/>
<path fill="#834E4F" opacity="1.000000" stroke="none" 
	d="
M107.055069,141.963379 
	C107.118195,141.901428 107.338417,142.224380 107.338417,142.224380 
	C107.338417,142.224380 107.021339,142.293716 106.946396,142.224274 
	C106.871452,142.154831 106.991951,142.025345 107.055069,141.963379 
z"/>
</svg>